<mxfile host="app.diagrams.net" agent="Mozilla/5.0 (Windows NT 10.0; Win64; x64) AppleWebKit/537.36 (KHTML, like Gecko) Chrome/137.0.0.0 Safari/537.36" version="27.1.5">
  <diagram name="Page-1" id="fIGNyYIA35s80Ec09xU6">
    <mxGraphModel dx="739" dy="722" grid="1" gridSize="10" guides="1" tooltips="1" connect="1" arrows="1" fold="1" page="1" pageScale="1" pageWidth="850" pageHeight="1100" math="0" shadow="0">
      <root>
        <mxCell id="0" />
        <mxCell id="1" parent="0" />
        <mxCell id="irP5eXMuf1ardO_G2W6W-3" value="" style="rounded=0;whiteSpace=wrap;html=1;" vertex="1" parent="1">
          <mxGeometry x="320" y="40" width="480" height="400" as="geometry" />
        </mxCell>
        <mxCell id="irP5eXMuf1ardO_G2W6W-4" value="Friend Finder Webpage" style="text;strokeColor=none;fillColor=none;html=1;align=center;verticalAlign=middle;whiteSpace=wrap;rounded=0;fontSize=16;" vertex="1" parent="1">
          <mxGeometry x="380" y="40" width="240" height="30" as="geometry" />
        </mxCell>
        <mxCell id="irP5eXMuf1ardO_G2W6W-13" style="edgeStyle=none;curved=1;rounded=0;orthogonalLoop=1;jettySize=auto;html=1;entryX=0;entryY=0.5;entryDx=0;entryDy=0;fontSize=12;startSize=8;endSize=8;" edge="1" parent="1" source="irP5eXMuf1ardO_G2W6W-5" target="irP5eXMuf1ardO_G2W6W-9">
          <mxGeometry relative="1" as="geometry" />
        </mxCell>
        <mxCell id="irP5eXMuf1ardO_G2W6W-14" style="edgeStyle=none;curved=1;rounded=0;orthogonalLoop=1;jettySize=auto;html=1;entryX=0;entryY=0.5;entryDx=0;entryDy=0;fontSize=12;startSize=8;endSize=8;" edge="1" parent="1" source="irP5eXMuf1ardO_G2W6W-5" target="irP5eXMuf1ardO_G2W6W-10">
          <mxGeometry relative="1" as="geometry" />
        </mxCell>
        <mxCell id="irP5eXMuf1ardO_G2W6W-15" style="edgeStyle=none;curved=1;rounded=0;orthogonalLoop=1;jettySize=auto;html=1;entryX=0;entryY=0.5;entryDx=0;entryDy=0;fontSize=12;startSize=8;endSize=8;" edge="1" parent="1" source="irP5eXMuf1ardO_G2W6W-5" target="irP5eXMuf1ardO_G2W6W-11">
          <mxGeometry relative="1" as="geometry" />
        </mxCell>
        <mxCell id="irP5eXMuf1ardO_G2W6W-16" style="edgeStyle=none;curved=1;rounded=0;orthogonalLoop=1;jettySize=auto;html=1;entryX=0;entryY=0.5;entryDx=0;entryDy=0;fontSize=12;startSize=8;endSize=8;" edge="1" parent="1" source="irP5eXMuf1ardO_G2W6W-5" target="irP5eXMuf1ardO_G2W6W-12">
          <mxGeometry relative="1" as="geometry" />
        </mxCell>
        <mxCell id="irP5eXMuf1ardO_G2W6W-5" value="User" style="shape=umlActor;verticalLabelPosition=bottom;verticalAlign=top;html=1;" vertex="1" parent="1">
          <mxGeometry x="240" y="220" width="30" height="60" as="geometry" />
        </mxCell>
        <mxCell id="irP5eXMuf1ardO_G2W6W-9" value="Create or Update Profile" style="ellipse;whiteSpace=wrap;html=1;" vertex="1" parent="1">
          <mxGeometry x="430" y="70" width="140" height="70" as="geometry" />
        </mxCell>
        <mxCell id="irP5eXMuf1ardO_G2W6W-10" value="Take Personality Quiz" style="ellipse;whiteSpace=wrap;html=1;" vertex="1" parent="1">
          <mxGeometry x="430" y="150" width="140" height="70" as="geometry" />
        </mxCell>
        <mxCell id="irP5eXMuf1ardO_G2W6W-11" value="View Discovery Page" style="ellipse;whiteSpace=wrap;html=1;" vertex="1" parent="1">
          <mxGeometry x="430" y="230" width="140" height="70" as="geometry" />
        </mxCell>
        <mxCell id="irP5eXMuf1ardO_G2W6W-12" value="Send Friend Requests" style="ellipse;whiteSpace=wrap;html=1;" vertex="1" parent="1">
          <mxGeometry x="430" y="360" width="140" height="70" as="geometry" />
        </mxCell>
        <mxCell id="irP5eXMuf1ardO_G2W6W-25" value="Retake Quiz" style="ellipse;whiteSpace=wrap;html=1;" vertex="1" parent="1">
          <mxGeometry x="640" y="100" width="140" height="70" as="geometry" />
        </mxCell>
        <mxCell id="irP5eXMuf1ardO_G2W6W-31" value="" style="html=1;labelBackgroundColor=#ffffff;startArrow=none;startFill=0;startSize=6;endArrow=classic;endFill=1;endSize=6;jettySize=auto;orthogonalLoop=1;strokeWidth=1;dashed=1;fontSize=14;rounded=0;curved=1;exitX=1;exitY=0.5;exitDx=0;exitDy=0;" edge="1" parent="1" source="irP5eXMuf1ardO_G2W6W-10">
          <mxGeometry width="60" height="60" relative="1" as="geometry">
            <mxPoint x="550" y="210" as="sourcePoint" />
            <mxPoint x="640" y="135" as="targetPoint" />
          </mxGeometry>
        </mxCell>
        <mxCell id="irP5eXMuf1ardO_G2W6W-32" value="&amp;lt;&amp;lt;extend&amp;gt;&amp;gt;" style="edgeLabel;html=1;align=center;verticalAlign=middle;resizable=0;points=[];fontSize=12;" vertex="1" connectable="0" parent="irP5eXMuf1ardO_G2W6W-31">
          <mxGeometry x="-0.12" y="1" relative="1" as="geometry">
            <mxPoint as="offset" />
          </mxGeometry>
        </mxCell>
        <mxCell id="irP5eXMuf1ardO_G2W6W-33" value="" style="html=1;labelBackgroundColor=#ffffff;startArrow=none;startFill=0;startSize=6;endArrow=classic;endFill=1;endSize=6;jettySize=auto;orthogonalLoop=1;strokeWidth=1;dashed=1;fontSize=14;rounded=0;curved=1;entryX=0.5;entryY=1;entryDx=0;entryDy=0;exitX=0.5;exitY=0;exitDx=0;exitDy=0;" edge="1" parent="1" source="irP5eXMuf1ardO_G2W6W-12" target="irP5eXMuf1ardO_G2W6W-11">
          <mxGeometry width="60" height="60" relative="1" as="geometry">
            <mxPoint x="540" y="400" as="sourcePoint" />
            <mxPoint x="600" y="340" as="targetPoint" />
          </mxGeometry>
        </mxCell>
        <mxCell id="irP5eXMuf1ardO_G2W6W-34" value="&amp;lt;&amp;lt;include&amp;gt;&amp;gt;" style="edgeLabel;html=1;align=center;verticalAlign=middle;resizable=0;points=[];fontSize=12;" vertex="1" connectable="0" parent="irP5eXMuf1ardO_G2W6W-33">
          <mxGeometry x="-0.15" y="1" relative="1" as="geometry">
            <mxPoint as="offset" />
          </mxGeometry>
        </mxCell>
      </root>
    </mxGraphModel>
  </diagram>
</mxfile>
